# xmcd
#
# Track frame offsets: 
#        183
#        16013
#        27683
#        39965
#        50180
#        62358
#        73125
#        86180
#        102433
#        114995
#        126663
#        140183
#        151495
#        164275
#        179098
#        193073
#
# Disc length: 2692 seconds
#
# Revision: 5
# Processed by: cddbd v1.5.2PL0 Copyright (c) Steve Scherf et al.
# Submitted via: ExactAudioCopy v1.0b1
#
DISCID=f10a8210
DTITLE=Various Artist - Ladies of country and western 2
DYEAR=1995
DGENRE=Country
TTITLE0=Lynn Anderson - You needet me
TTITLE1=Billie Jo Spears - Try a little kindness
TTITLE2=Lynn Anderson - Listen ti a country song
TTITLE3=Dolly Parton - Release me
TTITLE4=Lynn Anderson - Stand by your man
TTITLE5=Lynn Anderson - Ways to love
TTITLE6=Dolly Parton - Little blossom
TTITLE7=Lynn Anderson - When I dream
TTITLE8=Lynn Anderson - I fall to pieces
TTITLE9=Donna Fargo - The happiest girl in the whole U.S.A.
TTITLE10=Lynn Anderson - Talking in your sleep
TTITLE11=Dolly Parton - Makin' believe
TTITLE12=Lynn Anderson - Dannys song
TTITLE13=Lynn Anderson - Could I have this dance
TTITLE14=Billie Jo Spears - Mr. Walker, it`s all over
TTITLE15=Lynn Anderson - Ride, ride, ride
EXTD=YEAR: 1995
EXTT0=
EXTT1=
EXTT2=
EXTT3=
EXTT4=
EXTT5=
EXTT6=
EXTT7=
EXTT8=
EXTT9=
EXTT10=
EXTT11=
EXTT12=
EXTT13=
EXTT14=
EXTT15=
PLAYORDER=
